<svg width="190" height="79" viewBox="0 0 190 79" fill="none" xmlns="http://www.w3.org/2000/svg">
<g clip-path="url(#clip0_0_1)">
<rect x="0.775101" y="77.2992" width="24" height="170" rx="12" transform="rotate(-89.5739 0.775101 77.2992)" fill="white"/>
<rect width="18" height="13" transform="translate(15.9085 59.4113) rotate(0.426088)" fill="black"/>
<rect width="18" height="13" transform="translate(141.905 60.3483) rotate(0.426088)" fill="black"/>
</g>
<rect x="1.27881" y="76.803" width="23" height="169" rx="11.5" transform="rotate(-89.5739 1.27881 76.803)" stroke="black"/>
<g clip-path="url(#clip1_0_1)">
<rect x="9.85632" y="50.7939" width="24" height="170" rx="12" transform="rotate(-89.5739 9.85632 50.7939)" fill="white"/>
<rect width="18" height="13" transform="translate(24.9898 32.906) rotate(0.426088)" fill="black"/>
<rect width="18" height="13" transform="translate(150.986 33.843) rotate(0.426088)" fill="black"/>
</g>
<rect x="10.36" y="50.2976" width="23" height="169" rx="11.5" transform="rotate(-89.5739 10.36 50.2976)" stroke="black"/>
<g clip-path="url(#clip2_0_1)">
<rect x="18.9376" y="24.2886" width="24" height="170" rx="12" transform="rotate(-89.5739 18.9376 24.2886)" fill="white"/>
<rect width="18" height="13" transform="translate(34.071 6.40067) rotate(0.426088)" fill="black"/>
<rect width="18" height="13" transform="translate(160.068 7.33765) rotate(0.426088)" fill="black"/>
</g>
<rect x="19.4413" y="23.7923" width="23" height="169" rx="11.5" transform="rotate(-89.5739 19.4413 23.7923)" stroke="black"/>
<defs>
<clipPath id="clip0_0_1">
<rect x="0.775101" y="77.2992" width="24" height="170" rx="12" transform="rotate(-89.5739 0.775101 77.2992)" fill="white"/>
</clipPath>
<clipPath id="clip1_0_1">
<rect x="9.85632" y="50.7939" width="24" height="170" rx="12" transform="rotate(-89.5739 9.85632 50.7939)" fill="white"/>
</clipPath>
<clipPath id="clip2_0_1">
<rect x="18.9376" y="24.2886" width="24" height="170" rx="12" transform="rotate(-89.5739 18.9376 24.2886)" fill="white"/>
</clipPath>
</defs>
</svg>
